<?xml version="1.0" encoding="utf-8"?>
<svg fill="none" height="12" viewBox="0 0 12 12" width="12" xmlns="http://www.w3.org/2000/svg">
<path d="M9 4H9.5C10.0304 4 10.5391 4.21071 10.9142 4.58579C11.2893 4.96086 11.5 5.46957 11.5 6C11.5 6.53043 11.2893 7.03914 10.9142 7.41421C10.5391 7.78929 10.0304 8 9.5 8H9M9 4H1V8.5C1 9.03043 1.21071 9.53914 1.58579 9.91421C1.96086 10.2893 2.46957 10.5 3 10.5H7C7.53043 10.5 8.03914 10.2893 8.41421 9.91421C8.78929 9.53914 9 9.03043 9 8.5V4ZM3 0.5V2M5 0.5V2M7 0.5V2" fill="white" stroke="#2E2E2E" stroke-linecap="round" stroke-linejoin="round"/>
</svg>