<?xml version="1.0" encoding="utf-8"?>
<svg fill="none" height="20" viewBox="0 0 20 20" width="20" xmlns="http://www.w3.org/2000/svg">
<g clip-path="url(#clip0_144_2419)">
<path d="M14.9998 8.33334H13.9498C13.638 7.12584 12.9938 6.03 12.0903 5.17034C11.1868 4.31068 10.0604 3.72167 8.83887 3.47024C7.61737 3.21881 6.34985 3.31504 5.18031 3.748C4.01078 4.18096 2.98613 4.93329 2.22281 5.91949C1.45949 6.9057 0.988092 8.08624 0.862189 9.32697C0.736287 10.5677 0.960925 11.8189 1.51058 12.9383C2.06023 14.0578 2.91286 15.0006 3.97158 15.6596C5.03031 16.3187 6.25266 16.6676 7.49977 16.6667H14.9998C16.1048 16.6667 17.1646 16.2277 17.946 15.4463C18.7274 14.6649 19.1664 13.6051 19.1664 12.5C19.1664 11.3949 18.7274 10.3351 17.946 9.55373C17.1646 8.77233 16.1048 8.33334 14.9998 8.33334Z" fill="white" stroke="#2E2E2E" stroke-linecap="round" stroke-linejoin="round" stroke-width="2"/>
</g>
<defs>
<clipPath id="clip0_144_2419">
<rect fill="white" height="20" width="20"/>
</clipPath>
</defs>
</svg>