<?xml version="1.0" encoding="utf-8"?>
<svg fill="none" height="20" viewBox="0 0 20 20" width="20" xmlns="http://www.w3.org/2000/svg">
<g clip-path="url(#clip0_29_636)">
<path d="M10 0.833328V19.1667M14.1667 4.16666H7.91667C7.14312 4.16666 6.40125 4.47395 5.85427 5.02093C5.30729 5.56791 5 6.30978 5 7.08333C5 7.85688 5.30729 8.59874 5.85427 9.14572C6.40125 9.6927 7.14312 10 7.91667 10H12.0833C12.8569 10 13.5987 10.3073 14.1457 10.8543C14.6927 11.4012 15 12.1431 15 12.9167C15 13.6902 14.6927 14.4321 14.1457 14.9791C13.5987 15.526 12.8569 15.8333 12.0833 15.8333H5" fill="white" stroke="currentColor" stroke-linecap="round" stroke-linejoin="round" stroke-width="2"/>
</g>
<defs>
<clipPath id="clip0_29_636">
<rect fill="white" height="20" width="20"/>
</clipPath>
</defs>
</svg>