<svg width="12" height="12" viewBox="0 0 12 12" fill="none" xmlns="http://www.w3.org/2000/svg">
<path d="M3.8215 0.109314C2.6668 0.109314 1.7998 1.20902 1.7998 2.19226V3.07001C1.7998 3.96065 2.49475 4.70611 3.41188 4.87965V10.6369C3.41188 10.8375 3.58938 11 3.8083 11C4.02723 11 4.20473 10.8374 4.20473 10.6369V4.88383C5.13407 4.71908 5.84322 3.96859 5.84322 3.07001V2.19226C5.8432 1.209 4.97622 0.109314 3.8215 0.109314ZM5.05037 3.06998C5.05037 3.6885 4.4968 4.19167 3.8215 4.19167C3.1462 4.19167 2.59263 3.68847 2.59263 3.06998V2.19224C2.59263 1.57768 3.1431 0.835437 3.8215 0.835437C4.4999 0.835437 5.05037 1.57768 5.05037 2.19224V3.06998Z" fill="#2E2E2E"/>
<path d="M9.80739 0C9.58846 0 9.41097 0.162934 9.41097 0.363907V3.50847C9.41097 3.75235 9.20524 3.95616 8.93955 3.95616H8.856V0.363907C8.85602 0.162934 8.67853 0 8.4596 0C8.24067 0 8.06318 0.162934 8.06318 0.363907V3.95616H7.95956C7.69389 3.95616 7.48178 3.75237 7.48178 3.50847V0.363907C7.48178 0.162934 7.30432 0 7.08539 0C6.86646 0 6.68896 0.162934 6.68896 0.363907V3.50847C6.68896 4.15367 7.25671 4.68395 7.95956 4.68395H8.06318V10.6361C8.06318 10.8371 8.24067 11 8.4596 11C8.67853 11 8.85602 10.8371 8.85602 10.6361V4.68395H8.93957C9.64242 4.68395 10.2038 4.15369 10.2038 3.50847V0.363907C10.2038 0.162934 10.0263 0 9.80739 0Z" fill="#2E2E2E"/>
</svg>
