<?xml version="1.0" encoding="utf-8"?>
<svg fill="none" height="20" viewBox="0 0 20 20" width="20" xmlns="http://www.w3.org/2000/svg">
<g clip-path="url(#clip0_144_2439)">
<path d="M13.3335 10.8333V17.5M6.66686 10.8333V17.5M10.0002 12.5V19.1667M16.6669 13.8167C17.5429 13.433 18.2603 12.7596 18.6986 11.9096C19.1369 11.0596 19.2695 10.0847 19.074 9.1485C18.8786 8.21232 18.367 7.37186 17.6252 6.76821C16.8834 6.16456 15.9566 5.83447 15.0002 5.83335H13.9502C13.686 4.81045 13.1826 3.86497 12.4813 3.07485C11.78 2.28473 10.901 1.67258 9.91666 1.28887C8.93235 0.905154 7.87095 0.760863 6.81993 0.867885C5.7689 0.974908 4.75837 1.33018 3.8716 1.90442C2.98484 2.47866 2.24724 3.25542 1.71961 4.17068C1.19198 5.08594 0.889417 6.11349 0.836867 7.16864C0.784316 8.22379 0.983281 9.27632 1.41736 10.2395C1.85144 11.2026 2.50821 12.0488 3.33352 12.7083" fill="white" stroke="#2E2E2E" stroke-linecap="round" stroke-linejoin="round" stroke-width="2"/>
</g>
<defs>
<clipPath id="clip0_144_2439">
<rect fill="white" height="20" width="20"/>
</clipPath>
</defs>
</svg>