<svg width="20" height="20" viewBox="0 0 20 20" fill="none" xmlns="http://www.w3.org/2000/svg">
<rect x="0.25" y="0.25" width="19.5" height="19.5" rx="9.75" fill="#E5E5E5"/>
<rect x="0.25" y="0.25" width="19.5" height="19.5" rx="9.75" stroke="#B7B7B7" stroke-width="0.5"/>
<path d="M14 14.5V13.5C14 12.9696 13.7893 12.4609 13.4142 12.0858C13.0391 11.7107 12.5304 11.5 12 11.5H8C7.46957 11.5 6.96086 11.7107 6.58579 12.0858C6.21071 12.4609 6 12.9696 6 13.5V14.5" fill="#898989"/>
<path d="M10 9.5C11.1046 9.5 12 8.60457 12 7.5C12 6.39543 11.1046 5.5 10 5.5C8.89543 5.5 8 6.39543 8 7.5C8 8.60457 8.89543 9.5 10 9.5Z" fill="#898989"/>
<path d="M14 14.5V13.5C14 12.9696 13.7893 12.4609 13.4142 12.0858C13.0391 11.7107 12.5304 11.5 12 11.5H8C7.46957 11.5 6.96086 11.7107 6.58579 12.0858C6.21071 12.4609 6 12.9696 6 13.5V14.5M12 7.5C12 8.60457 11.1046 9.5 10 9.5C8.89543 9.5 8 8.60457 8 7.5C8 6.39543 8.89543 5.5 10 5.5C11.1046 5.5 12 6.39543 12 7.5Z" stroke="#898989" stroke-linecap="round" stroke-linejoin="round"/>
<rect x="6" y="14" width="8" height="1" fill="#898989"/>
</svg>
