<?xml version="1.0" encoding="utf-8"?>
<svg fill="none" height="20" viewBox="0 0 20 20" width="20" xmlns="http://www.w3.org/2000/svg">
<path d="M9.99995 11.66C10.8454 11.66 11.6562 11.3242 12.254 10.7263C12.8518 10.1285 13.1877 9.31771 13.1877 8.47228C13.1877 7.62684 12.8518 6.81603 12.254 6.21821C11.6562 5.6204 10.8454 5.28455 9.99995 5.28455C9.15451 5.28455 8.3437 5.6204 7.74588 6.21821C7.14807 6.81603 6.81222 7.62684 6.81222 8.47228C6.81222 9.31771 7.14807 10.1285 7.74588 10.7263C8.3437 11.3242 9.15451 11.66 9.99995 11.66ZM9.99995 11.66C11.3291 11.6601 12.6124 12.1455 13.6089 13.025C14.6054 13.9045 15.2465 15.1176 15.4118 16.4364C13.8983 17.714 11.9806 18.4131 9.99995 18.4091C8.01933 18.4131 6.10158 17.714 4.58813 16.4364M9.99995 11.66C8.67083 11.6601 7.38749 12.1455 6.39098 13.025C5.39447 13.9045 4.75338 15.1176 4.58813 16.4364M4.58813 16.4364C3.26796 15.3262 2.32115 13.8368 1.87607 12.1703C1.43098 10.5038 1.50916 8.74072 2.10001 7.12014C2.69085 5.49956 3.76577 4.09988 5.17902 3.11088C6.59227 2.12189 8.27547 1.59143 10.0004 1.59143C11.7253 1.59143 13.4085 2.12189 14.8218 3.11088C16.235 4.09988 17.31 5.49956 17.9008 7.12014C18.4916 8.74072 18.5698 10.5038 18.1247 12.1703C17.6797 13.8368 16.7328 15.3262 15.4127 16.4364" fill="white" stroke="#2E2E2E" stroke-linecap="round" stroke-linejoin="round" stroke-width="2"/>
</svg>