<?xml version="1.0" encoding="utf-8"?>
<svg fill="none" height="20" viewBox="0 0 20 20" width="20" xmlns="http://www.w3.org/2000/svg">
<path d="M7.9915 3.825C8.18509 3.63026 8.4238 3.48637 8.6864 3.40611C8.949 3.32586 9.22736 3.31173 9.49674 3.36499C9.76611 3.41824 10.0182 3.53723 10.2305 3.71137C10.4428 3.88551 10.6088 4.1094 10.7137 4.36316C10.8186 4.61691 10.8592 4.89266 10.8319 5.16588C10.8046 5.43911 10.7102 5.70135 10.557 5.9293C10.4039 6.15724 10.1969 6.34383 9.9543 6.47247C9.71171 6.60111 9.44109 6.66782 9.1665 6.66666H1.6665M10.4915 16.175C10.6851 16.3697 10.9238 16.5136 11.1864 16.5939C11.449 16.6741 11.7274 16.6883 11.9967 16.635C12.2661 16.5817 12.5182 16.4628 12.7305 16.2886C12.9428 16.1145 13.1088 15.8906 13.2137 15.6368C13.3186 15.3831 13.3592 15.1073 13.3319 14.8341C13.3046 14.5609 13.2102 14.2986 13.057 14.0707C12.9039 13.8428 12.6969 13.6562 12.4543 13.5275C12.2117 13.3989 11.9411 13.3322 11.6665 13.3333H1.6665M14.7748 6.44166C15.0172 6.1999 15.3154 6.02159 15.6431 5.92251C15.9708 5.82342 16.3178 5.80661 16.6536 5.87357C16.9893 5.94052 17.3034 6.08918 17.568 6.30639C17.8326 6.52359 18.0396 6.80266 18.1707 7.1189C18.3017 7.43515 18.3529 7.77882 18.3195 8.11953C18.2862 8.46024 18.1694 8.78749 17.9795 9.07233C17.7896 9.35716 17.5325 9.59082 17.2308 9.75262C16.9291 9.91442 16.5922 9.99938 16.2498 10H1.6665" fill="white" stroke="#2E2E2E" stroke-linecap="round" stroke-linejoin="round" stroke-width="2"/>
</svg>